  0
SECTION
  2
HEADER
  9
$ACADVER
  1
AC1009
  9
$INSBASE
 10
0
 20
0
 30
0
  9
$EXTMIN
 10
0
 20
0
  9
$EXTMAX
 10
297
 20
210
  9
$LIMMIN
 10
0
 20
0
  9
$LIMMAX
 10
297
 20
210
  9
$LTSCALE
 40
1
  0
ENDSEC
  0
SECTION
  2
TABLES
  0
TABLE
  2
LTYPE
 70
     9
  0
LTYPE
  2
CONTINUOUS
 70
    64
  3
実線
 72
    65
 73
     0
 40
0.0
  0
LTYPE
  2
DASHED1
 70
    64
  3
--  --  --  --  --  --  --  --  
 72
    65
 73
     2
 40
2.5
 49
1.25
 49
-1.25
  0
LTYPE
  2
DASHED2
 70
    64
  3
----    ----    ----    ----    
 72
    65
 73
     2
 40
5.0
 49
2.5
 49
-2.5
  0
LTYPE
  2
DASHED3
 70
    64
  3
------  ------  ------  ------  
 72
    65
 73
     2
 40
5.0
 49
3.75
 49
-1.25
  0
LTYPE
  2
CENTER1
 70
    64
  3
----- - ----- - ----- - ----- - 
 72
    65
 73
     4
 40
10.0
 49
6.25
 49
-1.25
 49
1.25
 49
-1.25
  0
LTYPE
  2
CENTER2
 70
    64
  3
----------  --  ----------  --  
 72
    65
 73
     4
 40
20.0
 49
12.5
 49
-2.5
 49
2.5
 49
-2.5
  0
LTYPE
  2
PHANTOM1
 70
    64
  3
--- - - --- - - --- - - --- - - 
 72
    65
 73
     6
 40
10.0
 49
3.25
 49
-1.25
 49
1.25
 49
-1.25
 49
1.25
 49
-1.25
  0
LTYPE
  2
PHANTOM2
 70
    64
  3
--------  -  -  --------  -  -  
 72
    65
 73
     6
 40
20.0
 49
10.0
 49
-2.5
 49
1.25
 49
-2.5
 49
1.25
 49
-2.5
  0
LTYPE
  2
DOT
 70
    64
  3
-   -   -   -   -   -   -   -   
 72
    65
 73
     2
 40
2.5
 49
0.625
 49
-1.875
  0
LTYPE
  2
DUMMY
 70
    64
  3
ダミー
 72
    65
 73
     0
 40
0.0
  0
LTYPE
  2
RAND1
 70
    64
  3
ランダム線1
 72
    65
 73
     4
 40
10.0
 49
1.0
 49
-2.0
 49
3.0
 49
-4.0
  0
LTYPE
  2
RAND2
 70
    64
  3
ランダム線2
 72
    65
 73
     4
 40
14.0
 49
2.0
 49
-3.0
 49
4.0
 49
-5.0
  0
LTYPE
  2
RAND3
 70
    64
  3
ランダム線3
 72
    65
 73
     4
 40
18.0
 49
3.0
 49
-4.0
 49
5.0
 49
-6.0
  0
LTYPE
  2
RAND4
 70
    64
  3
ランダム線4
 72
    65
 73
     4
 40
22.0
 49
4.0
 49
-5.0
 49
6.0
 49
-7.0
  0
LTYPE
  2
RAND5
 70
    64
  3
ランダム線5
 72
    65
 73
     4
 40
26.0
 49
5.0
 49
-6.0
 49
7.0
 49
-8.0
  0
LTYPE
  2
LONG1
 70
    64
  3
----------  --  ----------  --  
 72
    65
 73
     4
 40
40.0
 49
32.5
 49
-2.5
 49
2.5
 49
-2.5
  0
LTYPE
  2
LONG2
 70
    64
  3
--------  -  -  --------  -  -  
 72
    65
 73
     6
 40
40.0
 49
30.0
 49
-2.5
 49
1.25
 49
-2.5
 49
1.25
 49
-2.5
  0
LTYPE
  2
LONG3
 70
    64
  3
+++++++++++++++..+++++++++++++++
 72
    65
 73
     2
 40
40.0
 49
37.5
 49
-2.5
  0
LTYPE
  2
LONG4
 70
    64
  3
+++++++++++++++..+++++++++++++++
 72
    65
 73
     2
 40
80.0
 49
75.0
 49
-5.0
  0
LTYPE
  2
LONG5
 70
    64
  3
----------  --  ----------  --  
 72
    65
 73
     4
 40
60.0
 49
37.5
 49
-7.5
 49
7.5
 49
-7.5
  0
LTYPE
  2
dashed
 70
   64
  3
-------   -------------   ------
 72
   65
 73
    2
 40
7.5
 49
6
 49
-1.5
  0
LTYPE
  2
dashed_spaced
 70
   64
  3
----        --------        ----
 72
   65
 73
    2
 40
12
 49
6
 49
-6
  0
LTYPE
  2
long_dashed_dotted
 70
   64
  3
------------- --- --------------
 72
   65
 73
    4
 40
15.25
 49
12
 49
-1.5
 49
0.25
 49
-1.5
  0
LTYPE
  2
long_dashed_double-dotted
 70
   64
  3
----------- --- --- ------------
 72
   65
 73
    6
 40
17
 49
12
 49
-1.5
 49
0.25
 49
-1.5
 49
0.25
 49
-1.5
  0
LTYPE
  2
long_dashed_triplicate-dotted
 70
   64
  3
--------- --- --- --- ----------
 72
   65
 73
    8
 40
18.75
 49
12
 49
-1.5
 49
0.25
 49
-1.5
 49
0.25
 49
-1.5
 49
0.25
 49
-1.5
  0
LTYPE
  2
dotted
 70
   64
  3
   -       -       -       -    
 72
   65
 73
    2
 40
1.75
 49
0.25
 49
-1.5
  0
LTYPE
  2
chain
 70
   64
  3
-------------- -- --------------
 72
   65
 73
    4
 40
18.5
 49
12
 49
-1.5
 49
3.5
 49
-1.5
  0
LTYPE
  2
chain_double_dash
 70
   64
  3
------------ -- -- -------------
 72
   65
 73
    6
 40
23.5
 49
12
 49
-1.5
 49
3.5
 49
-1.5
 49
3.5
 49
-1.5
  0
LTYPE
  2
dashed_dotted
 70
   64
  3
-----------     -     ----------
 72
   65
 73
    4
 40
9.25
 49
6
 49
-1.5
 49
0.25
 49
-1.5
  0
LTYPE
  2
double-dashed_dotted
 70
   64
  3
------   -----------   -   -----
 72
   65
 73
    6
 40
16.75
 49
6
 49
-1.5
 49
6
 49
-1.5
 49
0.25
 49
-1.5
  0
LTYPE
  2
dashed_double-dotted
 70
   64
  3
---------    -    -    ---------
 72
   65
 73
    6
 40
11
 49
6
 49
-1.5
 49
0.25
 49
-1.5
 49
0.25
 49
-1.5
  0
LTYPE
  2
double-dashed_double-dotted
 70
   64
  3
-----   ---------   -   -   ----
 72
   65
 73
    8
 40
18.5
 49
6
 49
-1.5
 49
6
 49
-1.5
 49
0.25
 49
-1.5
 49
0.25
 49
-1.5
  0
LTYPE
  2
dashed_triplicate-dotted
 70
   64
  3
-------    -    -    -    ------
 72
   65
 73
    8
 40
12.75
 49
6
 49
-1.5
 49
0.25
 49
-1.5
 49
0.25
 49
-1.5
 49
0.25
 49
-1.5
  0
LTYPE
  2
double-dashed_triplicate-dotted
 70
   64
  3
-----  ---------  -  -  -  -----
 72
   65
 73
   10
 40
20.25
 49
6
 49
-1.5
 49
6
 49
-1.5
 49
0.25
 49
-1.5
 49
0.25
 49
-1.5
 49
0.25
 49
-1.5
  0
LTYPE
  2
undefined
 70
   64
  3
--------------------------------
 72
   65
 73
    0
 40
0
  0
LTYPE
  2
_
 70
   64
  3
                                
 72
   65
 73
    0
 40
0
  0
LTYPE
  2
__18
 70
   64
  3
                                
 72
   65
 73
    0
 40
0
  0
LTYPE
  2
__19
 70
   64
  3
                                
 72
   65
 73
    0
 40
0
  0
LTYPE
  2
__20
 70
   64
  3
                                
 72
   65
 73
    0
 40
0
  0
LTYPE
  2
__21
 70
   64
  3
                                
 72
   65
 73
    0
 40
0
  0
LTYPE
  2
__22
 70
   64
  3
                                
 72
   65
 73
    0
 40
0
  0
LTYPE
  2
__23
 70
   64
  3
                                
 72
   65
 73
    0
 40
0
  0
LTYPE
  2
__24
 70
   64
  3
                                
 72
   65
 73
    0
 40
0
  0
LTYPE
  2
__25
 70
   64
  3
                                
 72
   65
 73
    0
 40
0
  0
LTYPE
  2
__26
 70
   64
  3
                                
 72
   65
 73
    0
 40
0
  0
LTYPE
  2
__27
 70
   64
  3
                                
 72
   65
 73
    0
 40
0
  0
LTYPE
  2
__28
 70
   64
  3
                                
 72
   65
 73
    0
 40
0
  0
LTYPE
  2
__29
 70
   64
  3
                                
 72
   65
 73
    0
 40
0
  0
LTYPE
  2
__30
 70
   64
  3
                                
 72
   65
 73
    0
 40
0
  0
LTYPE
  2
__31
 70
   64
  3
                                
 72
   65
 73
    0
 40
0
  0
LTYPE
  2
__32
 70
   64
  3
                                
 72
   65
 73
    0
 40
0
  0
ENDTAB
  0
TABLE
  2
STYLE
  5
3
100
AcDbSymbolTable
 70
     1
  0
STYLE
  5
10
100
AcDbSymbolTableRecord
100
AcDbTextStyleTableRecord
  2
STANDARD
 70
     0
 40
0.0
 41
1.0
 50
0.0
 71
     0
 42
0.2
  3
txt
  4
bigfont.shx
  0
STYLE
  5
26
100
AcDbSymbolTableRecord
100
AcDbTextStyleTableRecord
  2
TATEGAKI
 70
    68
 40
0.0
 41
1.0
 50
0.0
 71
     0
 42
1.0
  3
txt
  4
bigfont.shx
  0
ENDTAB
  0
TABLE
  2
LAYER
 70
    2
  0
LAYER
  2
_0-0_
 70
   64
 62
    7
  6
CONTINUOUS
  0
LAYER
  2
ADD_LINE
 70
   64
 62
    7
  6
CONTINUOUS
  0
ENDTAB
  0
ENDSEC
  0
SECTION
  2
BLOCKS
  0
BLOCK
  2
-000-_HOLE
 70
   64
 10
0
 20
0
 30
0
  0
CIRCLE
  8
_0-0_
  6
CONTINUOUS
 62
    7
 10
0
 20
0
 40
2
  0
ENDBLK
  0
ENDSEC
  0
SECTION
  2
ENTITIES
  0
LINE
  8
_0-0_
  6
CONTINUOUS
 62
    6
 10
301.76343635902822
 20
202.63966183519327
 11
23.683436359028178
 21
202.63966183519327
  0
LINE
  8
_0-0_
  6
CONTINUOUS
 62
    5
 10
33.683436359028178
 20
43.43966183519322
 11
33.683436359028178
 21
7.0396618351932432
  0
LINE
  8
_0-0_
  6
CONTINUOUS
 62
    5
 10
49.683436359028164
 20
43.43966183519322
 11
49.683436359028164
 21
7.0396618351932432
  0
LINE
  8
_0-0_
  6
CONTINUOUS
 62
    5
 10
75.683436359028164
 20
43.43966183519322
 11
75.683436359028164
 21
7.0396618351932432
  0
LINE
  8
_0-0_
  6
CONTINUOUS
 62
    5
 10
85.683436359028164
 20
43.43966183519322
 11
85.683436359028164
 21
7.0396618351932432
  0
LINE
  8
_0-0_
  6
CONTINUOUS
 62
    6
 10
95.68343635902815
 20
43.43966183519322
 11
95.68343635902815
 21
7.0396618351932432
  0
TEXT
  8
_0-0_
 62
    4
 10
24.848047108246561
 20
9.647010798606658
 40
2
 41
1
 50
0
  1
訂正記号
  0
TEXT
  8
_0-0_
 62
    7
 10
56.089354525832448
 20
9.549685853380538
 40
3
 41
1
 50
0
  1
訂正理由
  0
TEXT
  8
_0-0_
 62
    4
 10
77.598167420805908
 20
11.301534867450769
 40
2
 41
1
 50
0
  1
訂正個
  0
TEXT
  8
_0-0_
 62
    4
 10
77.695492366032042
 20
8.4791114558931611
 40
2
 41
1
 50
0
  1
所の数
  0
TEXT
  8
_0-0_
 62
    7
 10
87.525311833870603
 20
9.1603860724760295
 40
3
 41
1
 50
0
  1
担当
  0
LINE
  8
_0-0_
  6
CONTINUOUS
 62
    5
 10
23.683436359028178
 20
36.159661835193248
 11
95.68343635902815
 21
36.159661835193248
  0
LINE
  8
_0-0_
  6
CONTINUOUS
 62
    5
 10
23.683436359028178
 20
28.879661835193218
 11
95.68343635902815
 21
28.879661835193218
  0
LINE
  8
_0-0_
  6
CONTINUOUS
 62
    5
 10
23.683436359028178
 20
21.599661835193245
 11
95.68343635902815
 21
21.599661835193245
  0
LINE
  8
_0-0_
  6
CONTINUOUS
 62
    5
 10
175.88343635902817
 20
7.0396618351932432
 11
175.88343635902817
 21
43.43966183519322
  0
LINE
  8
_0-0_
  6
CONTINUOUS
 62
    5
 10
118.68343635902815
 20
27.839661835193255
 11
118.68343635902815
 21
14.319661835193273
  0
LINE
  8
_0-0_
  6
CONTINUOUS
 62
    5
 10
153.00343635902814
 20
27.839661835193255
 11
153.00343635902814
 21
14.319661835193273
  0
LINE
  8
_0-0_
  6
CONTINUOUS
 62
    5
 10
164.44343635902817
 20
27.839661835193255
 11
164.44343635902817
 21
14.319661835193273
  0
LINE
  8
_0-0_
  6
CONTINUOUS
 62
    5
 10
141.68343635902815
 20
27.839661835193255
 11
141.68343635902815
 21
14.319661835193273
  0
TEXT
  8
_0-0_
 62
    7
 10
96.145857103054112
 20
39.506962230326124
 40
3
 41
1
 50
0
  1
美装他
  0
TEXT
  8
_0-0_
 62
    7
 10
96.034897262119983
 20
24.083544340481765
 40
3
 41
1
 50
0
  1
承認
  0
TEXT
  8
_0-0_
 62
    7
 10
119.22550401735356
 20
24.194504181415894
 40
3
 41
1
 50
0
  1
審査
  0
TEXT
  8
_0-0_
 62
    7
 10
141.97227140885065
 20
24.305464022350037
 40
3
 41
1
 50
0
  1
検図
  0
TEXT
  8
_0-0_
 62
    7
 10
153.40113502506622
 20
24.194504181415894
 40
3
 41
1
 50
0
  1
設計
  0
TEXT
  8
_0-0_
 62
    7
 10
164.82999864128183
 20
24.194504181415894
 40
3
 41
1
 50
0
  1
製図
  0
LINE
  8
_0-0_
  6
CONTINUOUS
 62
    5
 10
135.68343635902815
 20
27.839661835193255
 11
135.68343635902815
 21
43.43966183519322
  0
TEXT
  8
_0-0_
 62
    7
 10
136.42427936214403
 20
39.617922071260253
 40
3
 41
1
 50
0
  1
処理
  0
LINE
  8
_0-0_
  6
CONTINUOUS
 62
    5
 10
95.68343635902815
 20
27.839661835193255
 11
175.88343635902817
 21
27.839661835193255
  0
LINE
  8
_0-0_
  6
CONTINUOUS
 62
    5
 10
23.592085359028204
 20
14.319661835193273
 11
175.88343635902814
 21
14.319661835193273
  0
LINE
  8
_0-0_
  6
CONTINUOUS
 62
    5
 10
204.64343635902821
 20
17.43966183519322
 11
175.88343635902817
 21
17.43966183519322
  0
LINE
  8
_0-0_
  6
CONTINUOUS
 62
    5
 10
184.88343635902817
 20
17.43966183519322
 11
184.88343635902817
 21
43.43966183519322
  0
LINE
  8
_0-0_
  6
CONTINUOUS
 62
    6
 10
195.28343635902814
 20
7.0396618351932432
 11
195.28343635902814
 21
17.43966183519322
  0
LINE
  8
_0-0_
  6
CONTINUOUS
 62
    5
 10
216.08343635902816
 20
17.43966183519322
 11
216.08343635902816
 21
23.93966183519322
  0
LINE
  8
_0-0_
  6
CONTINUOUS
 62
    5
 10
226.48343635902816
 20
17.43966183519322
 11
226.48343635902816
 21
43.43966183519322
  0
LINE
  8
_0-0_
  6
CONTINUOUS
 62
    5
 10
240.00343635902817
 20
17.43966183519322
 11
240.00343635902817
 21
43.43966183519322
  0
LINE
  8
_0-0_
  6
CONTINUOUS
 62
    5
 10
248.32343635902819
 20
30.43966183519322
 11
248.32343635902819
 21
43.43966183519322
  0
LINE
  8
_0-0_
  6
CONTINUOUS
 62
    5
 10
281.60343635902814
 20
30.43966183519322
 11
281.60343635902814
 21
43.43966183519322
  0
LINE
  8
_0-0_
  6
CONTINUOUS
 62
    5
 10
214.00343635902817
 20
7.0396618351932432
 11
214.00343635902817
 21
17.43966183519322
  0
LINE
  8
_0-0_
  6
CONTINUOUS
 62
    5
 10
289.92343635902819
 20
30.43966183519322
 11
289.92343635902819
 21
43.43966183519322
  0
LINE
  8
_0-0_
  6
CONTINUOUS
 62
    5
 10
184.88343635902817
 20
36.93966183519322
 11
226.48343635902816
 21
36.93966183519322
  0
LINE
  8
_0-0_
  6
CONTINUOUS
 62
    5
 10
184.88343635902817
 20
23.93966183519322
 11
226.48343635902816
 21
23.93966183519322
  0
LINE
  8
_0-0_
  6
CONTINUOUS
 62
    5
 10
216.08343635902816
 20
35.899661835193257
 11
226.48343635902816
 21
35.899661835193257
  0
LINE
  8
_0-0_
  6
CONTINUOUS
 62
    5
 10
216.08343635902816
 20
34.859661835193236
 11
226.48343635902816
 21
34.859661835193236
  0
LINE
  8
_0-0_
  6
CONTINUOUS
 62
    5
 10
216.08343635902816
 20
33.819661835193273
 11
226.48343635902816
 21
33.819661835193273
  0
LINE
  8
_0-0_
  6
CONTINUOUS
 62
    5
 10
216.08343635902816
 20
32.779661835193252
 11
226.48343635902816
 21
32.779661835193252
  0
LINE
  8
_0-0_
  6
CONTINUOUS
 62
    5
 10
216.08343635902816
 20
31.479661835193241
 11
226.48343635902816
 21
31.479661835193241
  0
LINE
  8
_0-0_
  6
CONTINUOUS
 62
    5
 10
216.08343635902816
 20
22.899661835193257
 11
226.48343635902816
 21
22.899661835193257
  0
LINE
  8
_0-0_
  6
CONTINUOUS
 62
    5
 10
216.08343635902816
 20
21.859661835193236
 11
226.48343635902816
 21
21.859661835193236
  0
LINE
  8
_0-0_
  6
CONTINUOUS
 62
    5
 10
216.08343635902816
 20
20.819661835193273
 11
226.48343635902816
 21
20.819661835193273
  0
LINE
  8
_0-0_
  6
CONTINUOUS
 62
    5
 10
216.08343635902816
 20
19.779661835193252
 11
226.48343635902816
 21
19.779661835193252
  0
LINE
  8
_0-0_
  6
CONTINUOUS
 62
    5
 10
216.08343635902816
 20
18.739661835193232
 11
226.48343635902816
 21
18.739661835193232
  0
LINE
  8
_0-0_
  6
CONTINUOUS
 62
    5
 10
216.08343635902816
 20
36.93966183519322
 11
216.08343635902816
 21
30.43966183519322
  0
TEXT
  8
_0-0_
 62
    7
 10
177.05908958491224
 20
33.170026907825147
 40
3
 41
1
 50
0
  1
図番
  0
TEXT
  8
_0-0_
 62
    7
 10
176.93167383536499
 20
38.521488388809431
 40
3
 41
1
 50
0
  1
組立
  0
TEXT
  8
_0-0_
 62
    7
 10
177.31392108400672
 20
25.525081934990453
 40
3
 41
1
 50
0
  1
木型
  0
TEXT
  8
_0-0_
 62
    7
 10
177.31392108400672
 20
20.173620454006169
 40
3
 41
1
 50
0
  1
番号
  0
TEXT
  8
_0-0_
 62
    7
 10
197.31819376292418
 20
10.744854987510053
 40
3
 41
1
 50
0
  1
図面番号
  0
TEXT
  8
_0-0_
 62
    7
 10
180.49931482268786
 20
12.146428232529743
 40
4
 41
1
 50
0
  1
単位
  0
TEXT
  8
_0-0_
 62
    7
 10
182.28313531634927
 20
8.19653999656515
 40
4
 41
1
 50
0
  1
mm
  0
TEXT
  8
_0-0_
 62
    7
 10
229.42696264882989
 20
22.212272446762086
 40
3
 41
1
 50
0
  1
名称
  0
TEXT
  8
_0-0_
 62
    7
 10
229.93662564701884
 20
38.776319887903909
 40
3
 41
1
 50
0
  1
尺度
  0
TEXT
  8
_0-0_
 62
    4
 10
240.51213285944019
 20
39.031151386998403
 40
2.5
 41
1
 50
0
  1
材　料
  0
TEXT
  8
_0-0_
 62
    4
 10
240.38471710989296
 20
32.66036390963616
 40
2.5
 41
1
 50
0
  1
コ−ド
  0
TEXT
  8
_0-0_
 62
    7
 10
282.30449871093657
 20
35.336094650128302
 40
3
 41
1
 50
0
  1
個数
  0
LINE
  8
_0-0_
  6
CONTINUOUS
 62
    6
 10
23.683436359028178
 20
43.43966183519322
 11
301.76343635902822
 21
43.43966183519322
  0
LINE
  8
_0-0_
  6
CONTINUOUS
 62
    5
 10
175.88343635902817
 20
30.43966183519322
 11
301.76343635902822
 21
30.43966183519322
  0
LINE
  8
_0-0_
  6
CONTINUOUS
 62
    6
 10
301.76343635902822
 20
17.43966183519322
 11
204.64343635902821
 21
17.43966183519322
  0
LINE
  8
_0-0_
  6
CONTINUOUS
 62
    6
 10
23.683436359028178
 20
7.0396618351932432
 11
301.76343635902822
 21
7.0396618351932432
  0
LINE
  8
_0-0_
  6
CONTINUOUS
 62
    6
 10
23.683436359028178
 20
202.63966183519327
 11
23.683436359028178
 21
7.0396618351932432
  0
LINE
  8
_0-0_
  6
CONTINUOUS
 62
    6
 10
301.76343635902822
 20
7.0396618351932432
 11
301.76343635902822
 21
202.63966183519327
  0
TEXT
  8
_0-0_
 62
    7
 10
36.574178941302108
 20
9.3669447070655565
 40
3
 41
1
 50
0
  1
年月日
  0
TEXT
  8
_0-0_
 62
    3
 10
106.99431205278296
 20
7.8844155889291159
 40
5
 41
1
 50
0
  1
Minao Yamamoto
  0
TEXT
  8
_0-0_
 62
    3
 10
294.53424549704255
 20
33.334498783604658
 40
6
 41
1
 50
0
  1
1
  0
INSERT
  2
-000-_HOLE
  8
_0-0_
 10
195.39264353440649
 20
134.77841284759802
 41
0.6999999999999999
 42
0.6999999999999999
 50
0
  0
INSERT
  2
-000-_HOLE
  8
_0-0_
 10
154.24464353440635
 20
127.15841284759792
 41
0.6999999999999999
 42
0.6999999999999999
 50
0
  0
INSERT
  2
-000-_HOLE
  8
_0-0_
 10
149.16464353440642
 20
127.15841284759792
 41
0.6999999999999999
 42
0.6999999999999999
 50
0
  0
INSERT
  2
-000-_HOLE
  8
_0-0_
 10
190.82064353440637
 20
147.98641284759788
 41
0.9
 42
0.9
 50
0
  0
INSERT
  2
-000-_HOLE
  8
_0-0_
 10
180.66064353440652
 20
147.98641284759788
 41
0.9
 42
0.9
 50
0
  0
INSERT
  2
-000-_HOLE
  8
_0-0_
 10
170.50064353440644
 20
147.98641284759788
 41
0.9
 42
0.9
 50
0
  0
INSERT
  2
-000-_HOLE
  8
_0-0_
 10
160.34064353440635
 20
147.98641284759788
 41
0.9
 42
0.9
 50
0
  0
INSERT
  2
-000-_HOLE
  8
_0-0_
 10
150.18064353440627
 20
147.98641284759788
 41
0.9
 42
0.9
 50
0
  0
INSERT
  2
-000-_HOLE
  8
_0-0_
 10
140.02064353440642
 20
147.98641284759788
 41
0.9
 42
0.9
 50
0
  0
INSERT
  2
-000-_HOLE
  8
_0-0_
 10
129.86064353440634
 20
147.98641284759788
 41
0.9
 42
0.9
 50
0
  0
INSERT
  2
-000-_HOLE
  8
_0-0_
 10
119.70064353440625
 20
147.98641284759788
 41
0.9
 42
0.9
 50
0
  0
INSERT
  2
-000-_HOLE
  8
_0-0_
 10
109.5406435344064
 20
147.98641284759788
 41
0.9
 42
0.9
 50
0
  0
INSERT
  2
-000-_HOLE
  8
_0-0_
 10
99.380643534406317
 20
147.98641284759788
 41
0.9
 42
0.9
 50
0
  0
INSERT
  2
-000-_HOLE
  8
_0-0_
 10
89.220643534406463
 20
147.98641284759788
 41
0.9
 42
0.9
 50
0
  0
INSERT
  2
-000-_HOLE
  8
_0-0_
 10
79.060643534406381
 20
147.98641284759788
 41
0.9
 42
0.9
 50
0
  0
INSERT
  2
-000-_HOLE
  8
_0-0_
 10
190.82064353440637
 20
87.026412847597868
 41
0.9
 42
0.9
 50
0
  0
INSERT
  2
-000-_HOLE
  8
_0-0_
 10
180.66064353440652
 20
87.026412847597868
 41
0.9
 42
0.9
 50
0
  0
INSERT
  2
-000-_HOLE
  8
_0-0_
 10
170.50064353440644
 20
87.026412847597868
 41
0.9
 42
0.9
 50
0
  0
INSERT
  2
-000-_HOLE
  8
_0-0_
 10
160.34064353440635
 20
87.026412847597868
 41
0.9
 42
0.9
 50
0
  0
INSERT
  2
-000-_HOLE
  8
_0-0_
 10
150.18064353440627
 20
87.026412847597868
 41
0.9
 42
0.9
 50
0
  0
INSERT
  2
-000-_HOLE
  8
_0-0_
 10
140.02064353440642
 20
87.026412847597868
 41
0.9
 42
0.9
 50
0
  0
INSERT
  2
-000-_HOLE
  8
_0-0_
 10
129.86064353440634
 20
87.026412847597868
 41
0.9
 42
0.9
 50
0
  0
INSERT
  2
-000-_HOLE
  8
_0-0_
 10
119.70064353440625
 20
87.026412847597868
 41
0.9
 42
0.9
 50
0
  0
INSERT
  2
-000-_HOLE
  8
_0-0_
 10
109.5406435344064
 20
87.026412847597868
 41
0.9
 42
0.9
 50
0
  0
INSERT
  2
-000-_HOLE
  8
_0-0_
 10
99.380643534406317
 20
87.026412847597868
 41
0.9
 42
0.9
 50
0
  0
INSERT
  2
-000-_HOLE
  8
_0-0_
 10
89.220643534406463
 20
87.026412847597868
 41
0.9
 42
0.9
 50
0
  0
INSERT
  2
-000-_HOLE
  8
_0-0_
 10
79.060643534406381
 20
87.026412847597868
 41
0.9
 42
0.9
 50
0
  0
INSERT
  2
-000-_HOLE
  8
_0-0_
 10
125.79664353440626
 20
102.7744128475979
 41
0.6999999999999999
 42
0.6999999999999999
 50
0
  0
INSERT
  2
-000-_HOLE
  8
_0-0_
 10
130.87664353440641
 20
102.7744128475979
 41
0.6999999999999999
 42
0.6999999999999999
 50
0
  0
LINE
  8
_0-0_
  6
CONTINUOUS
 62
    4
 10
68.646643534406394
 20
175.76635489373635
 11
274.64064353440654
 21
175.76635489373635
  0
POINT
  8
_0-0_
 62
    4
 10
68.646643534406394
 20
175.76635489373635
  0
POINT
  8
_0-0_
 62
    4
 10
274.64064353440654
 20
175.76635489373635
  0
LINE
  8
_0-0_
  6
CONTINUOUS
 62
    4
 10
68.646643534406394
 20
175.76635489373635
 11
68.646643534406394
 21
158.22806172305764
  0
LINE
  8
_0-0_
  6
CONTINUOUS
 62
    4
 10
274.64064353440654
 20
175.76635489373635
 11
274.64064353440654
 21
158.22806172305764
  0
TEXT
  8
_0-0_
 62
    3
 10
163.51864353440646
 20
176.26635489373635
 40
5
 41
1
 50
0
  1
51.499
  0
LINE
  8
_0-0_
  6
CONTINUOUS
 62
    4
 10
286.00004551054928
 20
156.87641284759798
 11
286.00004551054928
 21
78.136412847597995
  0
POINT
  8
_0-0_
 62
    4
 10
286.00004551054928
 20
156.87641284759798
  0
POINT
  8
_0-0_
 62
    4
 10
286.00004551054928
 20
78.136412847597995
  0
LINE
  8
_0-0_
  6
CONTINUOUS
 62
    4
 10
286.00004551054928
 20
156.87641284759798
 11
275.33486723108251
 21
156.87641284759798
  0
LINE
  8
_0-0_
  6
CONTINUOUS
 62
    4
 10
286.00004551054928
 20
78.136412847597995
 11
275.33486723108251
 21
78.136412847597995
  0
TEXT
  8
_0-0_
 62
    3
 10
285.50004551054928
 20
109.38141284759799
 40
5
 41
1
 50
90
  1
19.685
  0
LINE
  8
_0-0_
  6
CONTINUOUS
 62
    4
 10
49.496260717496739
 20
156.87641284759798
 11
49.496260717496739
 21
128.68241284759802
  0
POINT
  8
_0-0_
 62
    4
 10
49.496260717496739
 20
156.87641284759798
  0
POINT
  8
_0-0_
 62
    4
 10
49.496260717496739
 20
128.68241284759802
  0
LINE
  8
_0-0_
  6
CONTINUOUS
 62
    4
 10
49.496260717496739
 20
156.87641284759798
 11
68.00379562928299
 21
156.87641284759798
  0
LINE
  8
_0-0_
  6
CONTINUOUS
 62
    4
 10
49.496260717496739
 20
128.68241284759802
 11
68.00379562928299
 21
128.68241284759802
  0
TEXT
  8
_0-0_
 62
    3
 10
48.996260717496796
 20
136.029412847598
 40
5
 41
1
 50
90
  1
7.049
  0
LINE
  8
_0-0_
  6
CONTINUOUS
 62
    4
 10
49.496260717496739
 20
128.68241284759802
 11
49.496260717496739
 21
124.36441284759805
  0
POINT
  8
_0-0_
 62
    4
 10
49.496260717496739
 20
124.36441284759805
  0
LINE
  8
_0-0_
  6
CONTINUOUS
 62
    4
 10
49.496260717496739
 20
124.36441284759805
 11
68.00379562928299
 21
124.36441284759805
  0
LINE
  8
_0-0_
  6
CONTINUOUS
 62
    4
 10
49.496260717496739
 20
124.36441284759805
 11
49.496260717496739
 21
110.64841284759792
  0
POINT
  8
_0-0_
 62
    4
 10
49.496260717496739
 20
110.64841284759792
  0
LINE
  8
_0-0_
  6
CONTINUOUS
 62
    4
 10
49.496260717496739
 20
110.64841284759792
 11
68.00379562928299
 21
110.64841284759792
  0
LINE
  8
_0-0_
  6
CONTINUOUS
 62
    4
 10
49.496260717496739
 20
110.64841284759792
 11
49.496260717496739
 21
106.33041284759794
  0
POINT
  8
_0-0_
 62
    4
 10
49.496260717496739
 20
106.33041284759794
  0
LINE
  8
_0-0_
  6
CONTINUOUS
 62
    4
 10
49.496260717496739
 20
106.33041284759794
 11
68.00379562928299
 21
106.33041284759794
  0
TEXT
  8
_0-0_
 62
    3
 10
48.491975877322318
 20
110.8780489409356
 40
5
 41
1
 50
90
  1
3.429
  0
TEXT
  8
_0-0_
 62
    3
 10
42.322797573393643
 20
128.7520141723729
 40
5
 41
1
 50
90
  1
1.08
  0
LINE
  8
_0-0_
  6
CONTINUOUS
 62
    7
 10
42.466266836275679
 20
139.14843837324511
 11
42.466266836275679
 21
129.67946702302893
  0
LINE
  8
_0-0_
  6
CONTINUOUS
 62
    7
 10
42.466266836275679
 20
129.67946702302893
 11
48.824386468274042
 21
127.97581400225449
  0
LINE
  8
_0-0_
  6
CONTINUOUS
 62
    7
 10
42.466266836275679
 20
106.72438496189876
 11
42.466266836275679
 21
95.820720982861943
  0
LINE
  8
_0-0_
  6
CONTINUOUS
 62
    7
 10
42.466266836275679
 20
106.72438496189876
 11
49.233603568582112
 21
108.53768737422976
  0
TEXT
  8
_0-0_
 62
    3
 10
42.228435050994449
 20
95.984024461110678
 40
5
 41
1
 50
90
  1
1.08
  0
LINE
  8
_0-0_
  6
CONTINUOUS
 62
    4
 10
66.484531645500283
 20
156.87641284759798
 11
66.484531645500283
 21
147.98641284759788
  0
POINT
  8
_0-0_
 62
    4
 10
66.484531645500283
 20
156.87641284759798
  0
POINT
  8
_0-0_
 62
    4
 10
66.484531645500283
 20
147.98641284759788
  0
LINE
  8
_0-0_
  6
CONTINUOUS
 62
    4
 10
66.484531645500283
 20
156.87641284759798
 11
79.060643534406381
 21
156.87641284759798
  0
LINE
  8
_0-0_
  6
CONTINUOUS
 62
    4
 10
66.484531645500283
 20
147.98641284759788
 11
79.060643534406381
 21
147.98641284759788
  0
TEXT
  8
_0-0_
 62
    3
 10
65.984531645500283
 20
145.68141284759795
 40
5
 41
1
 50
90
  1
2.223
  0
LINE
  8
_0-0_
  6
CONTINUOUS
 62
    4
 10
66.484531645500283
 20
147.98641284759788
 11
66.484531645500283
 21
87.026412847597868
  0
POINT
  8
_0-0_
 62
    4
 10
66.484531645500283
 20
87.026412847597868
  0
LINE
  8
_0-0_
  6
CONTINUOUS
 62
    4
 10
66.484531645500283
 20
87.026412847597868
 11
79.060643534406381
 21
87.026412847597868
  0
TEXT
  8
_0-0_
 62
    3
 10
65.984531645500283
 20
110.75641284759787
 40
5
 41
1
 50
90
  1
15.24
  0
LINE
  8
_0-0_
  6
CONTINUOUS
 62
    4
 10
66.484531645500283
 20
87.026412847597868
 11
66.484531645500283
 21
78.136412847597995
  0
POINT
  8
_0-0_
 62
    4
 10
66.484531645500283
 20
78.136412847597995
  0
LINE
  8
_0-0_
  6
CONTINUOUS
 62
    4
 10
66.484531645500283
 20
78.136412847597995
 11
79.060643534406381
 21
78.136412847597995
  0
TEXT
  8
_0-0_
 62
    3
 10
65.984531645500283
 20
75.831412847597932
 40
5
 41
1
 50
90
  1
2.223
  0
LINE
  8
_0-0_
  6
CONTINUOUS
 62
    4
 10
68.646643534406394
 20
159.10778154521333
 11
68.646643534406394
 21
147.98641284759788
  0
LINE
  8
_0-0_
  6
CONTINUOUS
 62
    4
 10
68.646643534406394
 20
159.02300508654469
 11
79.060643534406381
 21
159.02300508654469
  0
POINT
  8
_0-0_
 62
    4
 10
68.646643534406394
 20
159.02300508654469
  0
POINT
  8
_0-0_
 62
    4
 10
79.060643534406381
 20
159.02300508654469
  0
LINE
  8
_0-0_
  6
CONTINUOUS
 62
    4
 10
68.646643534406394
 20
159.02300508654469
 11
68.646643534406394
 21
87.026412847597854
  0
LINE
  8
_0-0_
  6
CONTINUOUS
 62
    4
 10
79.060643534406381
 20
159.02300508654469
 11
79.060643534406381
 21
87.026412847597854
  0
LINE
  8
_0-0_
  6
CONTINUOUS
 62
    4
 10
79.060643534406381
 20
159.02300508654469
 11
89.220643534406463
 21
159.02300508654469
  0
POINT
  8
_0-0_
 62
    4
 10
89.220643534406463
 20
159.02300508654469
  0
LINE
  8
_0-0_
  6
CONTINUOUS
 62
    4
 10
89.220643534406463
 20
159.02300508654469
 11
89.220643534406463
 21
87.026412847597854
  0
TEXT
  8
_0-0_
 62
    3
 10
78.765643534406422
 20
159.52300508654469
 40
5
 41
1
 50
0
  1
2.54
  0
LINE
  8
_0-0_
  6
CONTINUOUS
 62
    4
 10
89.220643534406463
 20
159.02300508654469
 11
99.380643534406317
 21
159.02300508654469
  0
POINT
  8
_0-0_
 62
    4
 10
99.380643534406317
 20
159.02300508654469
  0
LINE
  8
_0-0_
  6
CONTINUOUS
 62
    4
 10
99.380643534406317
 20
159.02300508654469
 11
99.380643534406317
 21
87.026412847597854
  0
LINE
  8
_0-0_
  6
CONTINUOUS
 62
    4
 10
99.380643534406317
 20
159.02300508654469
 11
109.5406435344064
 21
159.02300508654469
  0
POINT
  8
_0-0_
 62
    4
 10
109.5406435344064
 20
159.02300508654469
  0
LINE
  8
_0-0_
  6
CONTINUOUS
 62
    4
 10
109.5406435344064
 20
159.02300508654469
 11
109.5406435344064
 21
87.026412847597854
  0
TEXT
  8
_0-0_
 62
    3
 10
99.085643534406358
 20
159.52300508654469
 40
5
 41
1
 50
0
  1
2.54
  0
LINE
  8
_0-0_
  6
CONTINUOUS
 62
    4
 10
109.5406435344064
 20
159.02300508654469
 11
119.70064353440625
 21
159.02300508654469
  0
POINT
  8
_0-0_
 62
    4
 10
119.70064353440625
 20
159.02300508654469
  0
LINE
  8
_0-0_
  6
CONTINUOUS
 62
    4
 10
119.70064353440625
 20
159.02300508654469
 11
119.70064353440625
 21
87.026412847597854
  0
LINE
  8
_0-0_
  6
CONTINUOUS
 62
    4
 10
119.70064353440625
 20
159.02300508654469
 11
129.86064353440634
 21
159.02300508654469
  0
POINT
  8
_0-0_
 62
    4
 10
129.86064353440634
 20
159.02300508654469
  0
LINE
  8
_0-0_
  6
CONTINUOUS
 62
    4
 10
129.86064353440634
 20
159.02300508654469
 11
129.86064353440634
 21
87.026412847597854
  0
TEXT
  8
_0-0_
 62
    3
 10
119.40564353440629
 20
159.52300508654469
 40
5
 41
1
 50
0
  1
2.54
  0
LINE
  8
_0-0_
  6
CONTINUOUS
 62
    4
 10
129.86064353440634
 20
159.02300508654469
 11
140.02064353440642
 21
159.02300508654469
  0
POINT
  8
_0-0_
 62
    4
 10
140.02064353440642
 20
159.02300508654469
  0
LINE
  8
_0-0_
  6
CONTINUOUS
 62
    4
 10
140.02064353440642
 20
159.02300508654469
 11
140.02064353440642
 21
87.026412847597854
  0
LINE
  8
_0-0_
  6
CONTINUOUS
 62
    4
 10
140.02064353440642
 20
159.02300508654469
 11
150.18064353440627
 21
159.02300508654469
  0
POINT
  8
_0-0_
 62
    4
 10
150.18064353440627
 20
159.02300508654469
  0
LINE
  8
_0-0_
  6
CONTINUOUS
 62
    4
 10
150.18064353440627
 20
159.02300508654469
 11
150.18064353440627
 21
87.026412847597854
  0
TEXT
  8
_0-0_
 62
    3
 10
139.72564353440634
 20
159.52300508654469
 40
5
 41
1
 50
0
  1
2.54
  0
LINE
  8
_0-0_
  6
CONTINUOUS
 62
    4
 10
150.18064353440627
 20
159.02300508654469
 11
160.34064353440635
 21
159.02300508654469
  0
POINT
  8
_0-0_
 62
    4
 10
160.34064353440635
 20
159.02300508654469
  0
LINE
  8
_0-0_
  6
CONTINUOUS
 62
    4
 10
160.34064353440635
 20
159.02300508654469
 11
160.34064353440635
 21
87.026412847597854
  0
LINE
  8
_0-0_
  6
CONTINUOUS
 62
    4
 10
160.34064353440635
 20
159.02300508654469
 11
170.50064353440644
 21
159.02300508654469
  0
POINT
  8
_0-0_
 62
    4
 10
170.50064353440644
 20
159.02300508654469
  0
LINE
  8
_0-0_
  6
CONTINUOUS
 62
    4
 10
170.50064353440644
 20
159.02300508654469
 11
170.50064353440644
 21
87.026412847597854
  0
TEXT
  8
_0-0_
 62
    3
 10
160.04564353440639
 20
159.52300508654469
 40
5
 41
1
 50
0
  1
2.54
  0
LINE
  8
_0-0_
  6
CONTINUOUS
 62
    4
 10
170.50064353440644
 20
159.02300508654469
 11
180.66064353440652
 21
159.02300508654469
  0
POINT
  8
_0-0_
 62
    4
 10
180.66064353440652
 20
159.02300508654469
  0
LINE
  8
_0-0_
  6
CONTINUOUS
 62
    4
 10
180.66064353440652
 20
159.02300508654469
 11
180.66064353440652
 21
87.026412847597854
  0
LINE
  8
_0-0_
  6
CONTINUOUS
 62
    4
 10
180.66064353440652
 20
159.02300508654469
 11
190.82064353440637
 21
159.02300508654469
  0
POINT
  8
_0-0_
 62
    4
 10
190.82064353440637
 20
159.02300508654469
  0
LINE
  8
_0-0_
  6
CONTINUOUS
 62
    4
 10
190.82064353440637
 20
159.02300508654469
 11
190.82064353440637
 21
87.026412847597854
  0
TEXT
  8
_0-0_
 62
    3
 10
180.36564353440644
 20
159.52300508654469
 40
5
 41
1
 50
0
  1
2.54
  0
TEXT
  8
_0-0_
 62
    3
 10
169.97882384171947
 20
164.42413769396927
 40
5
 41
1
 50
0
  1
2.54
  0
TEXT
  8
_0-0_
 62
    3
 10
149.57198477446263
 20
164.17527380290517
 40
5
 41
1
 50
0
  1
2.54
  0
TEXT
  8
_0-0_
 62
    3
 10
129.53844154380198
 20
164.17527380290517
 40
5
 41
1
 50
0
  1
2.54
  0
TEXT
  8
_0-0_
 62
    3
 10
109.38046636760924
 20
164.05084185737309
 40
5
 41
1
 50
0
  1
2.54
  0
TEXT
  8
_0-0_
 62
    3
 10
88.849195354820381
 20
164.05084185737309
 40
5
 41
1
 50
0
  1
2.54
  0
LINE
  8
_0-0_
  6
CONTINUOUS
 62
    4
 10
68.646643534406394
 20
68.767955413451091
 11
125.79664353440626
 21
68.767955413451091
  0
POINT
  8
_0-0_
 62
    4
 10
68.646643534406394
 20
68.767955413451091
  0
POINT
  8
_0-0_
 62
    4
 10
125.79664353440626
 20
68.767955413451091
  0
LINE
  8
_0-0_
  6
CONTINUOUS
 62
    4
 10
68.646643534406394
 20
68.767955413451091
 11
68.646643534406394
 21
102.46410295568508
  0
TEXT
  8
_0-0_
 62
    3
 10
89.096643534406326
 20
69.267955413451091
 40
5
 41
1
 50
0
  1
14.288
  0
LINE
  8
_0-0_
  6
CONTINUOUS
 62
    4
 10
125.79664353440626
 20
68.767955413451091
 11
130.87664353440641
 21
68.767955413451091
  0
POINT
  8
_0-0_
 62
    4
 10
130.87664353440641
 20
68.767955413451091
  0
LINE
  8
_0-0_
  6
CONTINUOUS
 62
    4
 10
130.87664353440641
 20
68.767955413451091
 11
149.16464353440642
 21
68.767955413451091
  0
POINT
  8
_0-0_
 62
    4
 10
149.16464353440642
 20
68.767955413451091
  0
TEXT
  8
_0-0_
 62
    3
 10
133.27064353440642
 20
69.267955413451091
 40
5
 41
1
 50
0
  1
4.572
  0
LINE
  8
_0-0_
  6
CONTINUOUS
 62
    4
 10
149.16464353440642
 20
68.767955413451091
 11
154.24464353440635
 21
68.767955413451091
  0
POINT
  8
_0-0_
 62
    4
 10
154.24464353440635
 20
68.767955413451091
  0
LINE
  8
_0-0_
  6
CONTINUOUS
 62
    4
 10
154.24464353440635
 20
68.767955413451091
 11
195.39264353440649
 21
68.767955413451091
  0
POINT
  8
_0-0_
 62
    4
 10
195.39264353440649
 20
68.767955413451091
  0
TEXT
  8
_0-0_
 62
    3
 10
166.69364353440642
 20
69.267955413451091
 40
5
 41
1
 50
0
  1
10.287
  0
LINE
  8
_0-0_
  6
CONTINUOUS
 62
    4
 10
195.39264353440649
 20
68.767955413451091
 11
195.39264353440649
 21
134.77841284759805
  0
LINE
  8
_0-0_
  6
CONTINUOUS
 62
    4
 10
149.16464353440642
 20
68.767955413451091
 11
149.16464353440642
 21
127.15841284759792
  0
LINE
  8
_0-0_
  6
CONTINUOUS
 62
    4
 10
154.24464353440635
 20
68.767955413451091
 11
154.24464353440635
 21
127.15841284759792
  0
LINE
  8
_0-0_
  6
CONTINUOUS
 62
    4
 10
125.79664353440626
 20
68.767955413451091
 11
125.79664353440626
 21
102.7744128475979
  0
LINE
  8
_0-0_
  6
CONTINUOUS
 62
    4
 10
130.87664353440641
 20
68.767955413451091
 11
130.87664353440641
 21
102.7744128475979
  0
TEXT
  8
_0-0_
 62
    3
 10
123.03220140900862
 20
63.000048083974903
 40
5
 41
1
 50
0
  1
1.27
  0
TEXT
  8
_0-0_
 62
    3
 10
146.6459931303998
 20
63.002186465584842
 40
5
 41
1
 50
0
  1
1.27
  0
LINE
  8
_0-0_
  6
CONTINUOUS
 62
    4
 10
208.72499287600198
 20
156.87641284759798
 11
208.72499287600198
 21
134.77841284759802
  0
POINT
  8
_0-0_
 62
    4
 10
208.72499287600198
 20
156.87641284759798
  0
POINT
  8
_0-0_
 62
    4
 10
208.72499287600198
 20
134.77841284759802
  0
LINE
  8
_0-0_
  6
CONTINUOUS
 62
    4
 10
208.72499287600198
 20
156.87641284759798
 11
202.51352889459224
 21
156.87641284759798
  0
TEXT
  8
_0-0_
 62
    3
 10
208.22499287600198
 20
139.077412847598
 40
5
 41
1
 50
90
  1
5.525
  0
LINE
  8
_0-0_
  6
CONTINUOUS
 62
    4
 10
208.72499287600198
 20
134.77841284759802
 11
195.39264353440649
 21
134.77841284759802
  0
LINE
  8
_0-0_
  6
CONTINUOUS
 62
    4
 10
219.07743284501822
 20
156.87641284759798
 11
219.07743284501822
 21
127.15841284759792
  0
POINT
  8
_0-0_
 62
    4
 10
219.07743284501822
 20
156.87641284759798
  0
POINT
  8
_0-0_
 62
    4
 10
219.07743284501822
 20
127.15841284759792
  0
LINE
  8
_0-0_
  6
CONTINUOUS
 62
    4
 10
219.07743284501822
 20
156.87641284759798
 11
162.94420279079668
 21
156.87641284759798
  0
TEXT
  8
_0-0_
 62
    3
 10
218.57743284501822
 20
136.64241284759794
 40
5
 41
1
 50
90
  1
7.43
  0
LINE
  8
_0-0_
  6
CONTINUOUS
 62
    4
 10
219.07743284501822
 20
127.15841284759792
 11
149.16464353440642
 21
127.15841284759792
  0
LINE
  8
_0-0_
  6
CONTINUOUS
 62
    4
 10
229.65992703556822
 20
156.87641284759798
 11
229.65992703556822
 21
102.7744128475979
  0
POINT
  8
_0-0_
 62
    4
 10
229.65992703556822
 20
156.87641284759798
  0
POINT
  8
_0-0_
 62
    4
 10
229.65992703556822
 20
102.7744128475979
  0
LINE
  8
_0-0_
  6
CONTINUOUS
 62
    4
 10
229.65992703556822
 20
156.87641284759798
 11
137.86829264362399
 21
156.876412847598
  0
TEXT
  8
_0-0_
 62
    3
 10
229.15992703556822
 20
121.70041284759795
 40
5
 41
1
 50
90
  1
13.526
  0
LINE
  8
_0-0_
  6
CONTINUOUS
 62
    4
 10
229.65992703556822
 20
102.7744128475979
 11
125.79664353440626
 21
102.7744128475979
  0
TEXT
  8
_0-0_
 62
    3
 10
246.54411764705881
 20
20.514705882352942
 40
5
 41
1
 50
0
  1
GR-CITRUS
  0
LINE
  8
_0-0_
  6
CONTINUOUS
 62
    3
 10
274.64064353440654
 20
156.87641284759798
 11
68.646643534406394
 21
156.87641284759798
  0
LINE
  8
_0-0_
  6
CONTINUOUS
 62
    3
 10
68.646643534406394
 20
156.87641284759798
 11
68.646643534406394
 21
128.68241284759802
  0
LINE
  8
_0-0_
  6
CONTINUOUS
 62
    3
 10
68.646643534406394
 20
128.68241284759802
 11
72.202643534406434
 21
128.68241284759802
  0
LINE
  8
_0-0_
  6
CONTINUOUS
 62
    3
 10
72.202643534406434
 20
128.68241284759802
 11
72.202643534406434
 21
124.36441284759805
  0
LINE
  8
_0-0_
  6
CONTINUOUS
 62
    3
 10
72.202643534406434
 20
124.36441284759805
 11
68.646643534406394
 21
124.36441284759805
  0
LINE
  8
_0-0_
  6
CONTINUOUS
 62
    3
 10
68.646643534406394
 20
124.36441284759805
 11
68.646643534406394
 21
110.64841284759792
  0
LINE
  8
_0-0_
  6
CONTINUOUS
 62
    3
 10
68.646643534406394
 20
110.64841284759792
 11
72.202643534406434
 21
110.64841284759792
  0
LINE
  8
_0-0_
  6
CONTINUOUS
 62
    3
 10
72.202643534406434
 20
110.64841284759792
 11
72.202643534406434
 21
106.33041284759794
  0
LINE
  8
_0-0_
  6
CONTINUOUS
 62
    3
 10
72.202643534406434
 20
106.33041284759794
 11
68.646643534406394
 21
106.33041284759794
  0
LINE
  8
_0-0_
  6
CONTINUOUS
 62
    3
 10
68.646643534406394
 20
106.33041284759794
 11
68.646643534406394
 21
78.136412847597995
  0
LINE
  8
_0-0_
  6
CONTINUOUS
 62
    3
 10
68.646643534406394
 20
78.136412847597995
 11
274.64064353440654
 21
78.136412847597995
  0
LINE
  8
_0-0_
  6
CONTINUOUS
 62
    3
 10
274.64064353440654
 20
78.136412847597995
 11
274.64064353440654
 21
156.87641284759798
  0
TEXT
  8
_0-0_
 62
    3
 10
67.294047121194779
 20
164.54198853889858
 40
5
 41
1
 50
0
  1
2.604
  0
LINE
  8
_0-0_
  6
CONTINUOUS
 62
    4
 10
189.02064353440636
 20
147.98641284759788
 11
192.62064353440638
 21
147.98641284759788
  0
POINT
  8
_0-0_
 62
    4
 10
189.02064353440636
 20
147.98641284759788
  0
POINT
  8
_0-0_
 62
    4
 10
192.62064353440638
 20
147.98641284759788
  0
TEXT
  8
_0-0_
 62
    7
 10
230.0640413965661
 20
32.150700911447188
 40
4
 41
1
 50
0
  1
4/1
  0
LINE
  8
_0-0_
  6
CONTINUOUS
 62
    7
 10
198.45775923876289
 20
161.6680935342643
 11
190.82064353440637
 21
147.98641284759788
  0
TEXT
  8
_0-0_
 62
    3
 10
197.55450925189876
 20
161.39927744170635
 40
5
 41
1
 50
0
  1
Φ0.9(めっき厚み除く)
  0
LINE
  8
_0-0_
  6
CONTINUOUS
 62
    4
 10
196.79264353440649
 20
134.77841284759802
 11
193.99264353440648
 21
134.77841284759802
  0
POINT
  8
_0-0_
 62
    4
 10
196.79264353440649
 20
134.77841284759802
  0
POINT
  8
_0-0_
 62
    4
 10
193.99264353440648
 20
134.77841284759802
  0
LINE
  8
_0-0_
  6
CONTINUOUS
 62
    7
 10
212.68512780790087
 20
94.187451587916343
 11
269.96862896979087
 21
94.187451587916343
  0
LINE
  8
_0-0_
  6
CONTINUOUS
 62
    7
 10
212.68512780790087
 20
94.187451587916343
 11
195.39264353440649
 21
134.77841284759805
  0
TEXT
  8
_0-0_
 62
    3
 10
213.38206816421379
 20
94.647560030983726
 40
5
 41
1
 50
0
  1
Φ0.7(めっき厚み除く)
  0
LINE
  8
_0-0_
  6
CONTINUOUS
 62
    7
 10
254.3249419054996
 20
161.6680935342643
 11
198.45775923876289
 21
161.6680935342643
  0
ENDSEC
  0
EOF
